<svg width="49" height="48" viewBox="0 0 49 48" fill="none" xmlns="http://www.w3.org/2000/svg">
<g opacity="0.5">
<path d="M38.7 4.57463H12.7632C10.3571 4.57463 6.77777 6.1108 6.77777 10.3425V37.2592C6.77777 41.4908 10.3571 43.027 12.7632 43.027H42.6903V39.1818H12.7871C11.8654 39.1587 10.768 38.8088 10.768 37.2592C10.768 37.065 10.786 36.8919 10.8159 36.7343C11.0394 35.6268 11.9811 35.3558 12.7871 35.3365H42.6903V8.41987C42.6903 7.40005 42.2699 6.422 41.5215 5.70087C40.7732 4.97975 39.7583 4.57463 38.7 4.57463ZM38.7 21.8782L34.7097 19.9556L30.7194 21.8782V8.41987H38.7V21.8782Z" fill="white"/>
</g>
</svg>
