<svg width="43" height="43" viewBox="0 0 43 43" fill="none" xmlns="http://www.w3.org/2000/svg">
<path d="M15.7243 2.77293H5.35741C4.21231 2.77293 3.28403 3.70122 3.28403 4.84631V15.2132C3.28403 16.3583 4.21231 17.2866 5.35741 17.2866H15.7243C16.8694 17.2866 17.7977 16.3583 17.7977 15.2132V4.84631C17.7977 3.70122 16.8694 2.77293 15.7243 2.77293Z" stroke="#14A800" stroke-width="4.69444" stroke-linecap="round" stroke-linejoin="round"/>
<path d="M15.7243 25.5801H5.35741C4.21231 25.5801 3.28403 26.5084 3.28403 27.6535V38.0204C3.28403 39.1655 4.21231 40.0938 5.35741 40.0938H15.7243C16.8694 40.0938 17.7977 39.1655 17.7977 38.0204V27.6535C17.7977 26.5084 16.8694 25.5801 15.7243 25.5801Z" stroke="#14A800" stroke-width="4.69444" stroke-linecap="round" stroke-linejoin="round"/>
<path d="M38.5315 2.77293H28.1646C27.0195 2.77293 26.0912 3.70122 26.0912 4.84631V15.2132C26.0912 16.3583 27.0195 17.2866 28.1646 17.2866H38.5315C39.6766 17.2866 40.6048 16.3583 40.6048 15.2132V4.84631C40.6048 3.70122 39.6766 2.77293 38.5315 2.77293Z" stroke="#14A800" stroke-width="4.69444" stroke-linecap="round" stroke-linejoin="round"/>
<path d="M38.5315 25.5801H28.1646C27.0195 25.5801 26.0912 26.5084 26.0912 27.6535V38.0204C26.0912 39.1655 27.0195 40.0938 28.1646 40.0938H38.5315C39.6766 40.0938 40.6048 39.1655 40.6048 38.0204V27.6535C40.6048 26.5084 39.6766 25.5801 38.5315 25.5801Z" stroke="#14A800" stroke-width="4.69444" stroke-linecap="round" stroke-linejoin="round"/>
</svg>
