<svg width="40" height="41" viewBox="0 0 40 41" fill="none" xmlns="http://www.w3.org/2000/svg">
<path d="M28.2208 7.76562L32.6122 12.155L28.2208 7.76562ZM31.0447 3.89877L19.1705 15.773C18.5569 16.3857 18.1385 17.1663 17.9679 18.0164L16.8711 23.5067L22.3614 22.4078C23.2115 22.2378 23.9911 21.8211 24.6048 21.2073L36.479 9.3331C36.8359 8.97628 37.1189 8.55267 37.312 8.08645C37.5051 7.62024 37.6045 7.12056 37.6045 6.61594C37.6045 6.11131 37.5051 5.61163 37.312 5.14542C37.1189 4.6792 36.8359 4.25559 36.479 3.89877C36.1222 3.54195 35.6986 3.2589 35.2324 3.06579C34.7662 2.87268 34.2665 2.77328 33.7619 2.77328C33.2572 2.77328 32.7576 2.87268 32.2913 3.06579C31.8251 3.2589 31.4015 3.54195 31.0447 3.89877V3.89877Z" stroke="#14A800" stroke-width="4.69444" stroke-linecap="round" stroke-linejoin="round"/>
<path d="M33.4581 27.6535V33.8736C33.4581 34.9734 33.0212 36.0281 32.2436 36.8058C31.4659 37.5835 30.4111 38.0204 29.3114 38.0204H6.50418C5.40439 38.0204 4.34965 37.5835 3.57198 36.8058C2.79431 36.0281 2.35742 34.9734 2.35742 33.8736V11.0664C2.35742 9.96665 2.79431 8.9119 3.57198 8.13424C4.34965 7.35657 5.40439 6.91968 6.50418 6.91968H12.7243" stroke="#14A800" stroke-width="4.69444" stroke-linecap="round" stroke-linejoin="round"/>
</svg>
