<svg width="25" height="24" viewBox="0 0 25 24" fill="none" xmlns="http://www.w3.org/2000/svg">
<path d="M12.4459 22C13.7511 22 14.8189 21.0769 14.8189 19.9487H10.0729C10.0729 20.4928 10.3229 21.0145 10.7679 21.3992C11.213 21.7839 11.8166 22 12.4459 22ZM19.565 15.8462V10.7179C19.565 7.56923 17.6191 4.93333 14.2257 4.2359V3.53846C14.2257 2.68718 13.4307 2 12.4459 2C11.4611 2 10.6661 2.68718 10.6661 3.53846V4.2359C7.26085 4.93333 5.32684 7.55897 5.32684 10.7179V15.8462L3.79623 17.1692C3.04873 17.8154 3.57079 18.9231 4.62679 18.9231H20.2532C21.3092 18.9231 21.8431 17.8154 21.0956 17.1692L19.565 15.8462Z" fill="#333333" fill-opacity="0.4"/>
<circle cx="17.4445" cy="7" r="4.5" fill="#FF5151" stroke="white"/>
</svg>
