<svg width="50" height="51" viewBox="0 0 50 51" fill="none" xmlns="http://www.w3.org/2000/svg">
<g opacity="0.8">
<g opacity="0.8">
<path d="M34.2208 11.7656L38.6122 16.155L34.2208 11.7656ZM37.0447 7.89877L25.1705 19.773C24.5569 20.3857 24.1385 21.1663 23.9679 22.0164L22.8711 27.5067L28.3614 26.4078C29.2115 26.2378 29.9911 25.8211 30.6048 25.2073L42.479 13.3331C42.8359 12.9763 43.1189 12.5527 43.312 12.0865C43.5051 11.6202 43.6045 11.1206 43.6045 10.6159C43.6045 10.1113 43.5051 9.61163 43.312 9.14542C43.1189 8.6792 42.8359 8.25559 42.479 7.89877C42.1222 7.54195 41.6986 7.2589 41.2324 7.06579C40.7662 6.87268 40.2665 6.77328 39.7619 6.77328C39.2572 6.77328 38.7576 6.87268 38.2913 7.06579C37.8251 7.2589 37.4015 7.54195 37.0447 7.89877V7.89877Z" stroke="#14A800" stroke-width="4.69444" stroke-linecap="round" stroke-linejoin="round"/>
<path d="M39.4581 31.6535V37.8736C39.4581 38.9734 39.0212 40.0281 38.2436 40.8058C37.4659 41.5835 36.4111 42.0204 35.3114 42.0204H12.5042C11.4044 42.0204 10.3496 41.5835 9.57198 40.8058C8.79431 40.0281 8.35742 38.9734 8.35742 37.8736V15.0664C8.35742 13.9666 8.79431 12.9119 9.57198 12.1342C10.3496 11.3566 11.4044 10.9197 12.5042 10.9197H18.7243" stroke="#14A800" stroke-width="4.69444" stroke-linecap="round" stroke-linejoin="round"/>
</g>
</g>
</svg>
